# xmcd
#
# Track frame offsets:
#	150
#	15642
#	36557
#	58381
#	73716
#	86421
#	106138
#	124647
#	143420
#
# Disc length: 2193 seconds
#
# Revision: 1
# Processed by: cddbd v1.5.2PL0 Copyright (c) Steve Scherf et al.
# Submitted via: audiograbber 1.83.01
#
DISCID=77088f09
DTITLE=John Alexander Ericson - Black Clockworks
DYEAR=2006
DGENRE=Pop
TTITLE0=Black Clockworks
TTITLE1=The Twilight Star
TTITLE2=Radioactivity
TTITLE3=Black Dog In The Fog
TTITLE4=Weightless
TTITLE5=Sophia In Another Country
TTITLE6=Gold Dust
TTITLE7=Firestorm
TTITLE8=Where Secrets Can't Be Found
EXTD=
EXTT0=
EXTT1=
EXTT2=
EXTT3=
EXTT4=
EXTT5=
EXTT6=
EXTT7=
EXTT8=
PLAYORDER=
